<svg width="91" height="47" viewBox="0 0 91 47" fill="none" xmlns="http://www.w3.org/2000/svg">
<path d="M45.6399 43.97C69.4544 43.97 88.7599 34.8008 88.7599 23.49C88.7599 12.1792 69.4544 3.01001 45.6399 3.01001C21.8254 3.01001 2.5199 12.1792 2.5199 23.49C2.5199 34.8008 21.8254 43.97 45.6399 43.97Z" fill="#FF9015"/>
<path d="M45.6399 43.01C34.8699 43.01 26.1199 34.25 26.1199 23.49C26.1199 12.72 34.8799 3.96997 45.6399 3.96997C56.4099 3.96997 65.1599 12.73 65.1599 23.49C65.1699 34.25 56.4099 43.01 45.6399 43.01Z" fill="#D6D1CA"/>
<path d="M45.64 0.919983C20.29 0.919983 0.429932 10.83 0.429932 23.49C0.429932 36.14 20.29 46.06 45.64 46.06C70.99 46.06 90.8499 36.15 90.8499 23.49C90.8599 10.83 71 0.919983 45.64 0.919983ZM5.55994 19.1H13.9299C13.4399 20.51 13.1799 21.98 13.1799 23.48C13.1799 24.98 13.4399 26.45 13.9299 27.86H5.55994C4.76994 26.45 4.34995 24.98 4.34995 23.48C4.34995 21.98 4.76994 20.52 5.55994 19.1ZM75.4999 23.49C75.4999 24.98 75.1799 26.45 74.5599 27.87H66.2799C66.5799 26.46 66.7399 24.99 66.7399 23.49C66.7399 21.99 66.5799 20.52 66.2799 19.11H74.5599C75.1699 20.53 75.4999 22 75.4999 23.49ZM15.7899 23.49C15.7899 22 16.11 20.53 16.7299 19.11H25.0099C24.7099 20.52 24.5499 21.99 24.5499 23.49C24.5499 24.99 24.7099 26.46 25.0099 27.87H16.7299C16.11 26.45 15.7899 24.98 15.7899 23.49ZM63.5999 23.49C63.5999 33.39 55.54 41.45 45.64 41.45C35.74 41.45 27.6799 33.39 27.6799 23.49C27.6799 13.59 35.74 5.53003 45.64 5.53003C55.54 5.53003 63.5999 13.59 63.5999 23.49ZM25.7399 16.49H18.2299C19.6199 14.57 21.5799 12.79 24.0699 11.22C26.3099 9.80997 28.8499 8.65001 31.5899 7.76001C28.9699 10.1 26.9399 13.1 25.7399 16.49ZM25.7399 30.48C26.9299 33.87 28.9699 36.87 31.5999 39.22C28.8499 38.33 26.3199 37.17 24.0799 35.76C21.5899 34.19 19.6299 32.4 18.2399 30.49H25.7399V30.48ZM65.5399 30.48H73.0499C71.6599 32.4 69.6999 34.18 67.2099 35.75C64.9699 37.16 62.4299 38.32 59.6899 39.21C62.3099 36.87 64.3499 33.88 65.5399 30.48ZM65.5399 16.49C64.3499 13.1 62.3099 10.1 59.6799 7.75C62.4299 8.64 64.96 9.80002 67.2 11.21C69.6899 12.78 71.6499 14.57 73.0399 16.48H65.5399V16.49ZM65.2 7.14001C73.4799 9.21001 80.1199 12.53 83.7899 16.49H76.1599C73.9999 12.74 70.16 9.51001 65.2 7.14001ZM15.1199 16.49H7.48993C11.1599 12.53 17.7999 9.21001 26.0799 7.14001C21.1299 9.51001 17.2799 12.74 15.1199 16.49ZM15.1199 30.48C17.2799 34.23 21.1299 37.46 26.0799 39.83C17.7999 37.76 11.16 34.44 7.47995 30.48H15.1199ZM65.2 39.83C70.1499 37.47 73.9999 34.23 76.1599 30.48H83.7899C80.1199 34.44 73.4799 37.76 65.2 39.83ZM85.7299 27.87H77.3599C77.8499 26.46 78.1099 24.99 78.1099 23.49C78.1099 21.99 77.8499 20.52 77.3599 19.11H85.7299C86.52 20.52 86.9399 21.99 86.9399 23.49C86.9399 24.99 86.5099 26.46 85.7299 27.87Z" fill="#212322"/>
<path d="M52.87 26.01C52.94 26.23 52.99 26.5 52.99 26.81C52.99 27.68 52.62 28.22 52.42 28.32C51.9 28.58 51.56 29.11 51.55 29.69C51.49 32.95 48.7 35.6 45.32 35.6C41.89 35.6 39.1 32.91 39.09 29.6C39.09 29.59 39.09 29.57 39.09 29.56C39.09 29.06 38.85 28.58 38.44 28.29C38.23 28.14 37.91 27.61 37.91 26.8C37.91 26.49 37.96 26.22 38.03 26C37.47 25.88 36.96 25.75 36.51 25.62C36.41 25.98 36.35 26.38 36.35 26.79C36.35 28 36.83 29.05 37.53 29.55C37.53 29.56 37.53 29.56 37.53 29.57C37.53 33.76 41.02 37.15 45.33 37.15C49.59 37.15 53.05 33.83 53.13 29.7C53.96 29.28 54.56 28.14 54.56 26.79C54.56 26.37 54.5 25.98 54.4 25.61C53.94 25.76 53.43 25.89 52.87 26.01Z" fill="#212322"/>
<path d="M35.67 21.74H34.45V23.29C34.45 23.29 38.6399 25.24 45.4299 25.24C52.2099 25.24 56.4599 23.29 56.4599 23.29V21.74H55.2299C55.2299 21.1 55.2299 20.41 55.2399 20.17C55.2399 20.13 55.2399 20.1 55.2399 20.09C55.2399 16 52.73 12.51 49.17 11.05V15.67C49.17 16.03 48.8799 16.32 48.5199 16.32C48.1599 16.32 47.8699 16.03 47.8699 15.67V10.22C47.8599 9.97997 47.6699 9.78998 47.4399 9.78998H43.4999C43.2699 9.78998 43.0799 9.98002 43.0699 10.21V15.67C43.0699 16.03 42.78 16.32 42.42 16.32C42.06 16.32 41.7699 16.03 41.7699 15.67V11.05C38.2099 12.51 35.7 16.01 35.7 20.09C35.7 20.1 35.7 20.13 35.7 20.17C35.68 20.41 35.67 21.09 35.67 21.74ZM45.4399 19.76C48.9599 19.76 51.1599 20.43 51.2499 20.46C51.5299 20.55 51.6799 20.84 51.5899 21.11C51.5199 21.33 51.3099 21.48 51.0899 21.48C51.0399 21.48 50.9899 21.47 50.9399 21.46C50.9199 21.45 48.7899 20.81 45.4399 20.81C42.0899 20.81 39.9899 21.46 39.9699 21.46C39.6999 21.55 39.3999 21.39 39.3199 21.12C39.2299 20.84 39.3899 20.55 39.6599 20.47C39.7399 20.43 41.9199 19.76 45.4399 19.76Z" fill="#212322"/>
</svg>
