<svg width="109" height="109" viewBox="0 0 109 109" fill="none" xmlns="http://www.w3.org/2000/svg">
    <path d="M20.98 88.04C24.34 91.4 25.1 96.37 23.27 100.46C29.32 104.57 36.24 107.5 43.68 108.93C45.28 104.74 49.33 101.75 54.09 101.75C58.85 101.75 62.89 104.73 64.5 108.93C70.59 107.76 76.32 105.58 81.53 102.57L80.88 100.82L73.99 82.33C71.03 84.49 67.71 86.18 64.13 87.29C67.47 82.69 70.06 75.86 71.41 67.8H85.43C84.5 70.05 83.34 72.17 81.98 74.15L100.54 81.95L101.7 82.44C104.73 77.22 106.92 71.46 108.1 65.34C103.91 63.74 100.93 59.69 100.93 54.93C100.93 50.17 103.91 46.13 108.1 44.52C106.67 37.08 103.74 30.16 99.63 24.11C95.53 25.93 90.57 25.18 87.21 21.82C83.85 18.46 83.09 13.49 84.92 9.39999C78.87 5.28999 71.95 2.35999 64.51 0.929993C62.91 5.11999 58.86 8.10999 54.1 8.10999C49.34 8.10999 45.3 5.13 43.69 0.940002C36.25 2.37 29.33 5.3 23.28 9.41C25.1 13.51 24.35 18.47 20.99 21.83C17.63 25.19 12.66 25.95 8.57001 24.12C4.46001 30.17 1.52998 37.09 0.0999756 44.53C4.28998 46.13 7.28003 50.18 7.28003 54.94C7.28003 59.7 4.29998 63.74 0.0999756 65.35C1.52998 72.79 4.46001 79.71 8.57001 85.76C12.65 83.92 17.62 84.68 20.98 88.04ZM22.76 67.79H36.78C38.13 75.85 40.72 82.68 44.06 87.28C34.4 84.28 26.58 77.07 22.76 67.79ZM54.09 88.8C49.69 88.8 43.95 81.05 41.59 67.79H66.59C64.23 81.05 58.49 88.8 54.09 88.8ZM67.26 63.02H40.92C40.65 60.48 40.5 57.78 40.5 54.92C40.5 52.06 40.65 49.35 40.92 46.8H67.25C67.52 49.35 67.67 52.06 67.67 54.92C67.68 57.78 67.53 60.48 67.26 63.02ZM87.97 54.93C87.97 57.72 87.62 60.43 86.98 63.03H72.04C72.3 60.42 72.45 57.71 72.45 54.93C72.45 52.14 72.31 49.43 72.04 46.81H86.98C87.62 49.41 87.97 52.13 87.97 54.93ZM85.41 42.03H71.4C70.05 33.98 67.46 27.16 64.13 22.56C73.78 25.56 81.59 32.77 85.41 42.03ZM54.09 21.05C58.49 21.05 64.22 28.79 66.59 42.03H41.6C43.96 28.79 49.7 21.05 54.09 21.05ZM44.06 22.57C40.72 27.17 38.14 33.99 36.79 42.04H22.78C26.59 32.77 34.41 25.56 44.06 22.57ZM21.2 46.8H36.14C35.87 49.42 35.73 52.13 35.73 54.92C35.73 57.7 35.87 60.41 36.14 63.02H21.2C20.56 60.42 20.21 57.71 20.21 54.92C20.21 52.13 20.56 49.41 21.2 46.8Z" fill="#212322"/>
    <path d="M77.21 77.32L85.34 99.15L88.8099 92.83L94.7 98.95L98.14 95.65L92.2599 89.54L98.6799 86.34L77.21 77.32Z" fill="#212322"/>
</svg>
