<svg width="92" height="47" viewBox="0 0 92 47" fill="none" xmlns="http://www.w3.org/2000/svg">
    <path d="M45.9 43.97C69.7145 43.97 89.02 34.8008 89.02 23.49C89.02 12.1792 69.7145 3.01001 45.9 3.01001C22.0855 3.01001 2.78003 12.1792 2.78003 23.49C2.78003 34.8008 22.0855 43.97 45.9 43.97Z" fill="#FF9015"/>
    <path d="M45.9001 43.01C35.1301 43.01 26.3801 34.25 26.3801 23.49C26.3801 12.72 35.1401 3.96997 45.9001 3.96997C56.6601 3.96997 65.4201 12.73 65.4201 23.49C65.4301 34.25 56.6701 43.01 45.9001 43.01Z" fill="#D6D1CA"/>
    <path d="M45.9001 0.919983C20.5501 0.919983 0.680054 10.83 0.680054 23.49C0.680054 36.14 20.5401 46.06 45.9001 46.06C71.2601 46.06 91.11 36.15 91.11 23.49C91.12 10.83 71.2601 0.919983 45.9001 0.919983ZM5.82007 19.1H14.1901C13.7001 20.51 13.4401 21.98 13.4401 23.48C13.4401 24.98 13.7001 26.45 14.1901 27.86H5.82007C5.03007 26.45 4.61006 24.98 4.61006 23.48C4.61006 21.98 5.03007 20.52 5.82007 19.1ZM75.7601 23.49C75.7601 24.98 75.4401 26.45 74.8201 27.87H66.5401C66.8401 26.46 67.0001 24.99 67.0001 23.49C67.0001 21.99 66.8401 20.52 66.5401 19.11H74.8201C75.4301 20.53 75.7601 22 75.7601 23.49ZM16.0501 23.49C16.0501 22 16.3701 20.53 16.9901 19.11H25.2701C24.9701 20.52 24.8101 21.99 24.8101 23.49C24.8101 24.99 24.9701 26.46 25.2701 27.87H16.9901C16.3701 26.45 16.0501 24.98 16.0501 23.49ZM63.8601 23.49C63.8601 33.39 55.8001 41.45 45.9001 41.45C36.0001 41.45 27.9401 33.39 27.9401 23.49C27.9401 13.59 36.0001 5.53003 45.9001 5.53003C55.8001 5.53003 63.8601 13.59 63.8601 23.49ZM26.0001 16.49H18.4901C19.8801 14.57 21.8401 12.79 24.3301 11.22C26.5701 9.80997 29.1101 8.65001 31.8501 7.76001C29.2301 10.1 27.2001 13.1 26.0001 16.49ZM26.0001 30.48C27.1901 33.87 29.2301 36.87 31.8601 39.22C29.1101 38.33 26.5801 37.17 24.3401 35.76C21.8501 34.19 19.8901 32.4 18.5001 30.49H26.0001V30.48ZM26.3401 39.83C18.0601 37.76 11.4201 34.44 7.74007 30.48H15.3701C17.5401 34.23 21.3901 37.47 26.3401 39.83ZM65.8001 30.48H73.3101C71.9201 32.4 69.9601 34.18 67.4701 35.75C65.2301 37.16 62.6901 38.32 59.9501 39.21C62.5701 36.87 64.6101 33.88 65.8001 30.48ZM65.8001 16.49C64.6101 13.1 62.5701 10.1 59.9401 7.75C62.6901 8.64 65.2201 9.80002 67.4601 11.21C69.9501 12.78 71.9101 14.57 73.3001 16.48H65.8001V16.49ZM65.4601 7.14001C73.7401 9.21001 80.3801 12.53 84.0501 16.49H76.4201C74.2601 12.74 70.4201 9.51001 65.4601 7.14001ZM26.3401 7.14001C21.3901 9.50001 17.5401 12.74 15.3801 16.49H7.75006C11.4201 12.53 18.0601 9.21001 26.3401 7.14001ZM76.4201 30.48H84.0501C80.3801 34.44 73.7401 37.76 65.4501 39.83C70.4201 37.47 74.2601 34.23 76.4201 30.48ZM85.9901 27.87H77.6201C78.1101 26.46 78.3701 24.99 78.3701 23.49C78.3701 21.99 78.1101 20.52 77.6201 19.11H85.9901C86.7801 20.52 87.2001 21.99 87.2001 23.49C87.2001 24.99 86.7701 26.46 85.9901 27.87Z" fill="#212322"/>
    <path d="M54.15 26.11C53.12 26.11 52.19 26.58 51.58 27.32L50.43 27.2199V26.19L46.28 25.4699V24.3H49.42V22.13L44.8 20.67H41.02V24.3H42.67V24.9L41.45 25.6599V26.4699L40.2 26.37L34.32 16.51C34.1 16.14 33.62 16.02 33.25 16.24C32.88 16.46 32.76 16.94 32.98 17.31L38.25 26.15C38.06 26.11 37.86 26.09 37.65 26.09C35.81 26.09 34.31 27.58 34.31 29.43C34.31 31.27 35.8 32.77 37.65 32.77C38.81 32.77 39.84 32.17 40.44 31.27H51.36C51.96 32.17 52.98 32.77 54.15 32.77C55.99 32.77 57.49 31.28 57.49 29.43C57.49 27.61 55.99 26.11 54.15 26.11ZM37.66 30.7C36.97 30.7 36.41 30.14 36.41 29.45C36.41 28.76 36.97 28.2 37.66 28.2C38.35 28.2 38.91 28.76 38.91 29.45C38.91 30.14 38.35 30.7 37.66 30.7ZM54.15 30.7C53.46 30.7 52.9 30.14 52.9 29.45C52.9 28.76 53.46 28.2 54.15 28.2C54.84 28.2 55.4 28.76 55.4 29.45C55.4 30.14 54.84 30.7 54.15 30.7Z" fill="#212322"/>
</svg>
